<?xml version="1.0" encoding="utf-8"?>
<svg version="1.1" xmlns:xlink="http://www.w3.org/1999/xlink" width="30px" height="30px" xmlns="http://www.w3.org/2000/svg">
  <g transform="matrix(1 0 0 1 -32 -51 )">
    <path d="M 32 51  L 62 51  L 62 81  L 32 81  L 32 51  " fill-rule="nonzero" fill="#cccccc" stroke="none" />
    <path d="M 34 53  L 60 53  L 60 79  L 34 79  L 34 53  " fill-rule="nonzero" fill="#ffffff" stroke="none" />
    <path d="M 49.85 60  C 48.59 60  47.6 59.01  47.6 57.75  C 47.6 56.49  48.59 55.5  49.85 55.5  C 51.11 55.5  52.1 56.49  52.1 57.75  C 52.1 59.01  51.11 60  49.85 60  " fill-rule="nonzero" fill="#cccccc" stroke="none" />
    <path d="M 35 78  L 35 64.8  L 41 58.8  L 49.4 63.6  L 54.2 62.4  L 59 63.6  L 59 78  L 35 78  " fill-rule="nonzero" fill="#169bd5" stroke="none" />
  </g>
</svg>