<?xml version="1.0" encoding="utf-8"?>
<svg version="1.1" xmlns:xlink="http://www.w3.org/1999/xlink" width="20px" height="20px" xmlns="http://www.w3.org/2000/svg">
  <defs>
    <mask fill="white" id="clip1">
      <path d="M 308 108  C 302.45 108  298 103.55  298 98  L 298 98  C 298 92.45  302.45 88  308 88  L 308 88  C 313.55 88  318 92.45  318 98  L 318 98  C 318 103.55  313.55 108  308 108  " fill-rule="evenodd" />
    </mask>
  </defs>
  <g transform="matrix(1 0 0 1 -298 -88 )">
    <path d="M 298 88  L 318 88  L 318 108  L 298 108  L 298 88  " fill-rule="nonzero" fill="#cccccc" stroke="none" mask="url(#clip1)" />
    <path d="M 299 89  L 317 89  L 317 107  L 299 107  L 299 89  " fill-rule="nonzero" fill="#ffffff" stroke="none" mask="url(#clip1)" />
    <path d="M 309.9 94  C 309.06 94  308.4 93.34  308.4 92.5  C 308.4 91.66  309.06 91  309.9 91  C 310.74 91  311.4 91.66  311.4 92.5  C 311.4 93.34  310.74 94  309.9 94  " fill-rule="nonzero" fill="#cccccc" stroke="none" mask="url(#clip1)" />
    <path d="M 300 107  L 300 97.65  L 304.25 93.4  L 310.2 96.8  L 313.6 95.95  L 317 96.8  L 317 107  L 300 107  " fill-rule="nonzero" fill="#169bd5" stroke="none" mask="url(#clip1)" />
  </g>
</svg>